<?xml version="1.0" encoding="utf-8"?>
<svg version="1.1" id="Layer_1" xmlns="http://www.w3.org/2000/svg" xmlns:xlink="http://www.w3.org/1999/xlink" x="0px" y="0px"
   viewBox="0 0 24 24" style="enable-background:new 0 0 24 24;" xml:space="preserve">
  <path d="M6,9c-1.1,0-2,0.9-2,2v10c0,1.1,0.9,2,2,2h12c1.1,0,2-0.9,2-2V11c0-1.1-0.9-2-2-2H6z M12,18c-1.1,0-2-0.9-2-2s0.9-2,2-2
    s2,0.9,2,2S13.1,18,12,18z"/>
  <path d="M12,2C9.2,2,7,4.2,7,7v5h1.9V7c0-1.7,1.4-3.1,3.1-3.1s3.1,1.4,3.1,3.1v2H17V7C17,4.2,14.8,2,12,2z"/>
</svg>
